<svg width="214" height="300" viewBox="0 0 214 300" fill="none" xmlns="http://www.w3.org/2000/svg">
<path d="M105.127 199.904L123.137 295.051L139.595 264.642L170.79 282.95L137.676 190.3L105.127 199.904Z" fill="#FF725E" style="fill:#FF725E;fill:color(display-p3 1.0000 0.4471 0.3686);fill-opacity:1;"/>
<g opacity="0.3">
<path d="M111.184 231.904C114.513 232.59 118.398 231.412 120.761 228.969C122.401 227.271 123.496 224.965 125.565 223.828C127.423 222.807 129.713 222.953 131.756 223.517C133.799 224.081 135.722 225.028 137.774 225.56C141.794 226.604 146.229 225.945 149.774 223.778L144.579 209.352L120.46 206.339L108.96 220.153L111.184 231.904Z" fill="black" style="fill:black;fill-opacity:1;"/>
</g>
<path d="M138.421 260.863C138.321 260.889 135.639 251.007 132.431 238.794C129.222 226.576 126.703 216.654 126.803 216.628C126.902 216.602 129.584 226.482 132.793 238.699C136.001 250.912 138.521 260.836 138.421 260.863Z" fill="#263238" style="fill:#263238;fill:color(display-p3 0.1490 0.1961 0.2196);fill-opacity:1;"/>
<path d="M107.763 204.854L89.7524 300L73.2942 269.591L42.0991 287.9L75.2128 195.249L107.763 204.854Z" fill="#FF725E" style="fill:#FF725E;fill:color(display-p3 1.0000 0.4471 0.3686);fill-opacity:1;"/>
<g opacity="0.3">
<path d="M65.3086 222.96C65.3086 222.96 70.4305 227.177 76.5422 225.234C82.6532 223.291 86.4472 222.883 89.7532 225.234C93.0592 227.586 102.01 235.251 102.01 235.251L104.088 224.274L92.068 207.766L79.5151 210.3L70.5755 211.193L67.2523 217.484L65.3086 222.96Z" fill="black" style="fill:black;fill-opacity:1;"/>
</g>
<path d="M213.353 118.963C213.353 125.79 204.628 131.67 203.352 138.122C202.037 144.77 207.824 153.533 205.287 159.65C202.707 165.874 192.393 167.966 188.689 173.498C184.958 179.072 186.948 189.397 182.222 194.122C177.496 198.848 167.171 196.858 161.597 200.589C156.065 204.293 153.973 214.606 147.749 217.187C141.632 219.724 132.869 213.937 126.221 215.252C119.77 216.528 113.889 225.254 107.062 225.254C100.236 225.254 94.3552 216.528 87.9033 215.252C81.2554 213.937 72.4924 219.723 66.3756 217.187C60.152 214.607 58.0597 204.293 52.528 200.589C46.9539 196.858 36.6289 198.848 31.9032 194.122C27.1775 189.396 29.1679 179.071 25.4362 173.497C21.7333 167.965 11.4192 165.873 8.83812 159.649C6.30157 153.533 12.0888 144.769 10.7739 138.122C9.49774 131.67 0.771973 125.789 0.771973 118.963C0.771973 112.136 9.49774 106.255 10.7739 99.8035C12.0888 93.1556 6.30157 84.3925 8.83812 78.2758C11.4185 72.0521 21.7326 69.9599 25.4362 64.4281C29.1679 58.854 27.1775 48.5291 31.9039 43.8034C36.6297 39.0777 46.9546 41.068 52.5287 37.3364C58.0604 33.6328 60.1527 23.3193 66.3764 20.7383C72.4931 18.2017 81.2562 23.989 87.904 22.6741C94.3559 21.3979 100.236 12.6721 107.063 12.6721C113.89 12.6721 119.77 21.3979 126.222 22.6741C132.87 23.989 141.633 18.2024 147.75 20.7383C153.973 23.3186 156.066 33.6328 161.598 37.3364C167.172 41.068 177.497 39.0777 182.222 43.8034C186.948 48.5291 184.958 58.854 188.689 64.4281C192.392 69.9599 202.706 72.0521 205.287 78.2758C207.824 84.3925 202.037 93.1556 203.352 99.8035C204.628 106.256 213.353 112.137 213.353 118.963Z" fill="#FF725E" style="fill:#FF725E;fill:color(display-p3 1.0000 0.4471 0.3686);fill-opacity:1;"/>
<path d="M82.194 59.3851C82.1825 59.3909 82.1165 59.2897 82.0009 59.0916C81.8682 58.8533 81.7067 58.5647 81.5114 58.2166C81.0908 57.4544 80.5102 56.3361 79.8183 54.9422C78.4315 52.1552 76.6386 48.2412 74.9095 43.8148C73.184 39.3856 71.8519 35.2908 70.9855 32.3013C70.5513 30.8069 70.2211 29.5911 70.0144 28.7455C69.9218 28.3572 69.845 28.0357 69.7819 27.7708C69.7331 27.5469 69.713 27.4277 69.7252 27.4242C69.7374 27.4206 69.7819 27.5333 69.8544 27.7507C69.9362 28.0106 70.0352 28.3257 70.1544 28.7068C70.4278 29.5932 70.7939 30.7818 71.2382 32.2252C72.1684 35.1903 73.5364 39.2614 75.2576 43.6799C76.9824 48.0955 78.7323 52.0166 80.0558 54.8288C80.7061 56.1918 81.2416 57.3144 81.6406 58.1513C81.81 58.5123 81.9514 58.8116 82.067 59.0578C82.161 59.266 82.2055 59.3787 82.194 59.3851Z" fill="#263238" style="fill:#263238;fill:color(display-p3 0.1490 0.1961 0.2196);fill-opacity:1;"/>
<path d="M91.6524 55.7878C91.6273 55.7942 91.5311 55.5122 91.3783 54.9961C91.2239 54.4807 91.0208 53.7293 90.784 52.7976C90.3102 50.9336 89.7231 48.3411 89.192 45.455C88.6623 42.5674 88.2897 39.9347 88.0708 38.024C87.961 37.0687 87.8842 36.2942 87.8455 35.7581C87.8053 35.2219 87.7952 34.924 87.8203 34.9212C87.8462 34.9183 87.905 35.2104 87.9897 35.7408C88.083 36.3502 88.1972 37.1017 88.3328 37.9889C88.6185 39.8873 89.0312 42.5064 89.5595 45.3868C90.0892 48.2664 90.6339 50.8611 91.0409 52.7366C91.2297 53.6144 91.3897 54.3573 91.5189 54.9602C91.6288 55.487 91.6776 55.7813 91.6524 55.7878Z" fill="#263238" style="fill:#263238;fill:color(display-p3 0.1490 0.1961 0.2196);fill-opacity:1;"/>
<path d="M108.34 54.1298C108.237 54.1319 107.971 46.0808 107.747 36.1493C107.522 26.2141 107.424 18.1608 107.527 18.1587C107.63 18.1565 107.896 26.2062 108.121 36.1414C108.344 46.0722 108.443 54.1276 108.34 54.1298Z" fill="#263238" style="fill:#263238;fill:color(display-p3 0.1490 0.1961 0.2196);fill-opacity:1;"/>
<path d="M125.132 37.5868C125.23 37.6177 124.071 41.6436 122.544 46.5775C121.016 51.5135 119.697 55.4891 119.599 55.459C119.501 55.4288 120.659 51.4037 122.187 46.4669C123.715 41.5324 125.032 37.556 125.132 37.5868Z" fill="#263238" style="fill:#263238;fill:color(display-p3 0.1490 0.1961 0.2196);fill-opacity:1;"/>
<path d="M131.986 58.3918C131.974 58.3875 132.005 58.2705 132.076 58.0523C132.165 57.7946 132.274 57.4824 132.404 57.1055C132.692 56.2844 133.139 55.108 133.696 53.656C134.818 50.7548 136.432 46.7727 138.268 42.398C140.104 38.0211 141.81 34.0785 143.068 31.2347C143.688 29.8573 144.199 28.7226 144.58 27.8763C144.751 27.516 144.893 27.2174 145.01 26.972C145.112 26.7667 145.171 26.6619 145.183 26.6669C145.196 26.6719 145.159 26.7875 145.079 27.0021C144.98 27.2555 144.859 27.5634 144.713 27.9345C144.36 28.7929 143.886 29.9428 143.311 31.3395C142.088 34.2565 140.438 38.1927 138.613 42.543C136.799 46.8955 135.158 50.8345 133.943 53.7543C133.368 55.1504 132.894 56.3002 132.54 57.1579C132.384 57.5247 132.254 57.829 132.147 58.0795C132.053 58.2884 131.997 58.3961 131.986 58.3918Z" fill="#263238" style="fill:#263238;fill:color(display-p3 0.1490 0.1961 0.2196);fill-opacity:1;"/>
<path d="M140.959 63.0708C140.937 63.0565 141.084 62.7974 141.368 62.3401C141.651 61.8822 142.077 61.2312 142.616 60.4352C143.694 58.8425 145.241 56.6814 147.046 54.3666C148.853 52.0518 150.572 50.0249 151.854 48.5915C152.495 47.8745 153.023 47.3032 153.398 46.917C153.772 46.5301 153.988 46.3248 154.007 46.3421C154.027 46.3593 153.847 46.5976 153.507 47.0132C153.114 47.4876 152.629 48.0726 152.055 48.7638C150.826 50.2388 149.143 52.2872 147.341 54.5963C145.541 56.9053 143.964 59.0363 142.832 60.5874C142.302 61.3116 141.852 61.9253 141.488 62.422C141.168 62.8533 140.98 63.0852 140.959 63.0708Z" fill="#263238" style="fill:#263238;fill:color(display-p3 0.1490 0.1961 0.2196);fill-opacity:1;"/>
<path d="M154.007 73.7689C153.937 73.6935 159.616 68.2953 166.69 61.7142C173.767 55.1309 179.559 49.8568 179.629 49.9322C179.7 50.0076 174.021 55.4044 166.945 61.9876C159.871 68.5695 154.078 73.8443 154.007 73.7689Z" fill="#263238" style="fill:#263238;fill:color(display-p3 0.1490 0.1961 0.2196);fill-opacity:1;"/>
<path d="M176.805 75.9984C176.828 76.05 175.987 76.4714 174.642 77.1769C173.295 77.8803 171.46 78.8952 169.437 80.0314C167.412 81.1684 165.547 82.1517 164.165 82.7962C163.475 83.1185 162.911 83.369 162.514 83.5255C162.118 83.6848 161.895 83.7616 161.884 83.7379C161.861 83.687 162.702 83.2649 164.047 82.5594C165.394 81.856 167.229 80.8411 169.254 79.7041C171.278 78.5679 173.142 77.5846 174.523 76.9393C175.214 76.6171 175.778 76.3666 176.175 76.2101C176.571 76.0515 176.794 75.9747 176.805 75.9984Z" fill="#263238" style="fill:#263238;fill:color(display-p3 0.1490 0.1961 0.2196);fill-opacity:1;"/>
<path d="M197.911 84.7527C197.945 84.8504 191.185 87.3187 182.813 90.2658C174.439 93.2137 167.625 95.5241 167.59 95.4272C167.556 95.3296 174.315 92.862 182.689 89.9134C191.061 86.9663 197.876 84.6551 197.911 84.7527Z" fill="#263238" style="fill:#263238;fill:color(display-p3 0.1490 0.1961 0.2196);fill-opacity:1;"/>
<path d="M204.628 123.128C204.618 123.231 197.272 122.616 188.221 121.755C179.167 120.893 171.838 120.111 171.847 120.008C171.857 119.906 179.202 120.521 188.256 121.383C197.307 122.244 204.637 123.026 204.628 123.128Z" fill="#263238" style="fill:#263238;fill:color(display-p3 0.1490 0.1961 0.2196);fill-opacity:1;"/>
<path d="M199.225 157.55C199.182 157.643 192.313 154.491 183.886 150.509C175.456 146.527 168.66 143.224 168.704 143.131C168.748 143.038 175.616 146.189 184.046 150.172C192.472 154.153 199.269 157.457 199.225 157.55Z" fill="#263238" style="fill:#263238;fill:color(display-p3 0.1490 0.1961 0.2196);fill-opacity:1;"/>
<path d="M176.63 190.3C176.551 190.366 171.597 184.62 165.566 177.467C159.533 170.312 154.708 164.459 154.787 164.392C154.866 164.325 159.819 170.07 165.852 177.226C171.883 184.38 176.709 190.234 176.63 190.3Z" fill="#263238" style="fill:#263238;fill:color(display-p3 0.1490 0.1961 0.2196);fill-opacity:1;"/>
<path d="M157.771 194.626C157.75 194.64 157.537 194.352 157.173 193.819C156.807 193.287 156.293 192.507 155.669 191.535C154.422 189.592 152.748 186.874 150.987 183.822C149.226 180.768 147.711 177.96 146.653 175.907C146.124 174.881 145.705 174.045 145.427 173.462C145.149 172.879 145.005 172.552 145.028 172.539C145.051 172.528 145.238 172.833 145.556 173.394C145.905 174.021 146.351 174.823 146.885 175.782C148.002 177.801 149.552 180.585 151.311 183.635C153.07 186.683 154.704 189.418 155.894 191.396C156.457 192.339 156.928 193.126 157.295 193.741C157.622 194.298 157.793 194.613 157.771 194.626Z" fill="#263238" style="fill:#263238;fill:color(display-p3 0.1490 0.1961 0.2196);fill-opacity:1;"/>
<path d="M146.055 211.097C146.043 211.103 145.979 211.002 145.868 210.803C145.74 210.564 145.585 210.275 145.399 209.926C144.995 209.162 144.44 208.042 143.779 206.646C142.457 203.854 140.757 199.933 139.14 195.503C137.527 191.07 136.305 186.974 135.522 183.986C135.13 182.492 134.834 181.277 134.652 180.433C134.571 180.046 134.503 179.725 134.447 179.46C134.404 179.237 134.388 179.118 134.4 179.115C134.413 179.112 134.454 179.225 134.52 179.442C134.595 179.703 134.685 180.018 134.793 180.398C135.041 181.285 135.374 182.474 135.777 183.916C136.624 186.881 137.882 190.953 139.491 195.375C141.104 199.794 142.76 203.72 144.019 206.535C144.639 207.899 145.148 209.023 145.529 209.862C145.691 210.223 145.825 210.522 145.936 210.769C146.025 210.979 146.066 211.092 146.055 211.097Z" fill="#263238" style="fill:#263238;fill:color(display-p3 0.1490 0.1961 0.2196);fill-opacity:1;"/>
<path d="M122.324 199.55C122.269 199.553 122.181 198.595 122.014 197.051C121.848 195.507 121.588 193.379 121.198 191.044C120.806 188.708 120.36 186.611 120.014 185.097C119.669 183.584 119.441 182.648 119.494 182.633C119.519 182.626 119.607 182.851 119.744 183.265C119.884 183.678 120.065 184.282 120.271 185.033C120.683 186.536 121.173 188.636 121.567 190.982C121.958 193.329 122.178 195.473 122.277 197.028C122.328 197.805 122.354 198.435 122.356 198.871C122.359 199.307 122.35 199.549 122.324 199.55Z" fill="#263238" style="fill:#263238;fill:color(display-p3 0.1490 0.1961 0.2196);fill-opacity:1;"/>
<path d="M106.801 220.211C106.788 220.211 106.777 220.084 106.769 219.843C106.765 219.559 106.759 219.211 106.753 218.788C106.743 217.871 106.749 216.546 106.779 214.908C106.834 211.631 106.984 207.107 107.246 202.115C107.506 197.12 107.827 192.605 108.091 189.339C108.225 187.706 108.344 186.386 108.437 185.475C108.485 185.055 108.523 184.708 108.555 184.426C108.586 184.186 108.609 184.062 108.622 184.063C108.635 184.064 108.637 184.191 108.63 184.433C108.617 184.716 108.602 185.064 108.582 185.487C108.525 186.457 108.448 187.767 108.355 189.359C108.164 192.68 107.905 197.171 107.62 202.135C107.358 207.125 107.166 211.644 107.043 214.916C106.984 216.511 106.934 217.821 106.898 218.792C106.877 219.214 106.86 219.563 106.845 219.846C106.829 220.085 106.814 220.211 106.801 220.211Z" fill="#263238" style="fill:#263238;fill:color(display-p3 0.1490 0.1961 0.2196);fill-opacity:1;"/>
<path d="M94.182 184.062C94.2315 184.071 94.154 184.771 93.9667 185.893C93.7801 187.015 93.4779 188.558 93.0824 190.248C92.6862 191.938 92.2713 193.455 91.9397 194.543C91.6088 195.632 91.3669 196.293 91.3189 196.279C91.2679 196.265 91.4201 195.577 91.6849 194.474C91.9806 193.242 92.3309 191.78 92.7185 190.163C93.0896 188.543 93.4248 187.078 93.7076 185.842C93.9602 184.736 94.1296 184.052 94.182 184.062Z" fill="#263238" style="fill:#263238;fill:color(display-p3 0.1490 0.1961 0.2196);fill-opacity:1;"/>
<path d="M71.3659 173.099C71.4484 173.162 70.0423 175.154 68.2257 177.549C66.409 179.945 64.8695 181.836 64.7876 181.773C64.7051 181.711 66.1112 179.719 67.9285 177.323C69.7437 174.928 71.2833 173.037 71.3659 173.099Z" fill="#263238" style="fill:#263238;fill:color(display-p3 0.1490 0.1961 0.2196);fill-opacity:1;"/>
<path d="M59.3963 165.058C59.4739 165.126 55.0202 170.356 49.4489 176.738C43.8763 183.124 39.2963 188.243 39.2188 188.174C39.1413 188.106 43.5942 182.877 49.1676 176.493C54.7381 170.11 59.3181 164.989 59.3963 165.058Z" fill="#263238" style="fill:#263238;fill:color(display-p3 0.1490 0.1961 0.2196);fill-opacity:1;"/>
<path d="M53.4065 156.156C53.4718 156.236 50.9941 158.386 47.8718 160.959C44.7489 163.533 42.165 165.554 42.0989 165.474C42.0336 165.395 44.5106 163.244 47.6335 160.671C50.7558 158.097 53.3404 156.076 53.4065 156.156Z" fill="#263238" style="fill:#263238;fill:color(display-p3 0.1490 0.1961 0.2196);fill-opacity:1;"/>
<path d="M46.3995 142.724C46.4447 142.817 40.2404 145.899 32.5446 149.608C24.846 153.318 18.5706 156.249 18.5261 156.156C18.4816 156.063 24.6837 152.981 32.3824 149.271C40.0782 145.563 46.355 142.631 46.3995 142.724Z" fill="#263238" style="fill:#263238;fill:color(display-p3 0.1490 0.1961 0.2196);fill-opacity:1;"/>
<path d="M43.5836 136.024C43.5886 136.05 43.3589 136.116 42.9391 136.215C42.5199 136.316 41.9091 136.441 41.1511 136.581C39.6359 136.863 37.5286 137.182 35.188 137.418C32.846 137.651 30.7171 137.755 29.1761 137.78C28.4052 137.793 27.7822 137.791 27.3508 137.775C26.9202 137.761 26.6819 137.741 26.6812 137.715C26.6804 137.661 27.6315 137.609 29.1653 137.516C30.6999 137.423 32.8173 137.278 35.15 137.046C37.4819 136.812 39.5857 136.534 41.1081 136.321C42.6311 136.108 43.5735 135.971 43.5836 136.024Z" fill="#263238" style="fill:#263238;fill:color(display-p3 0.1490 0.1961 0.2196);fill-opacity:1;"/>
<path d="M41.3112 120.56C41.3091 120.586 40.8619 120.575 40.0552 120.533C39.1874 120.488 38.0361 120.429 36.6415 120.358C33.7597 120.218 29.7755 120.087 25.3742 120.108C20.9715 120.133 16.9886 120.308 14.1083 120.478C12.7151 120.565 11.5645 120.636 10.6968 120.69C9.89144 120.741 9.44429 120.757 9.44141 120.731C9.43926 120.705 9.88139 120.641 10.6838 120.545C11.4863 120.448 12.6498 120.333 14.0896 120.214C16.9692 119.976 20.9593 119.759 25.3713 119.733C29.7819 119.711 33.7741 119.886 36.6559 120.093C38.0971 120.196 39.262 120.298 40.0652 120.387C40.8705 120.475 41.3134 120.534 41.3112 120.56Z" fill="#263238" style="fill:#263238;fill:color(display-p3 0.1490 0.1961 0.2196);fill-opacity:1;"/>
<path d="M42.7211 106.978C42.6931 107.078 38.0456 105.868 32.3416 104.276C26.6354 102.684 22.0339 101.313 22.0612 101.213C22.0891 101.113 26.7359 102.323 32.4421 103.915C38.1461 105.507 42.749 106.879 42.7211 106.978Z" fill="#263238" style="fill:#263238;fill:color(display-p3 0.1490 0.1961 0.2196);fill-opacity:1;"/>
<path d="M45.7243 95.591C45.72 95.6032 45.6037 95.5766 45.3855 95.5149C45.1264 95.4367 44.8135 95.3412 44.4359 95.2271C43.6127 94.973 42.4327 94.571 40.985 94.0442C38.0895 92.9927 34.1426 91.3828 29.9215 89.307C25.7018 87.2255 22.019 85.078 19.42 83.4236C18.1201 82.5974 17.0822 81.9069 16.3788 81.4095C16.058 81.1799 15.7924 80.9897 15.5721 80.8325C15.3898 80.6975 15.2979 80.6207 15.3051 80.61C15.3123 80.5992 15.4185 80.6545 15.6137 80.77C15.8441 80.9114 16.1226 81.0822 16.4585 81.2882C17.1856 81.7483 18.2436 82.4036 19.5585 83.1989C22.1876 84.7923 25.8791 86.8968 30.0858 88.9711C34.294 91.0404 38.2123 92.6841 41.0776 93.7966C42.5102 94.3543 43.6744 94.7935 44.4826 95.0893C44.8508 95.2299 45.1558 95.3469 45.4085 95.4431C45.6202 95.5285 45.7286 95.5788 45.7243 95.591Z" fill="#263238" style="fill:#263238;fill:color(display-p3 0.1490 0.1961 0.2196);fill-opacity:1;"/>
<path d="M52.4809 84.1433C52.4213 84.228 48.788 81.7711 44.3659 78.6575C39.9424 75.5424 36.406 72.9499 36.4656 72.8652C36.5252 72.7805 40.1577 75.2366 44.5813 78.3517C49.0034 81.466 52.5405 84.0593 52.4809 84.1433Z" fill="#263238" style="fill:#263238;fill:color(display-p3 0.1490 0.1961 0.2196);fill-opacity:1;"/>
<path d="M38.2013 49.2547C38.21 49.2454 38.3033 49.3143 38.4734 49.4536C38.6736 49.6251 38.9141 49.8311 39.2033 50.0787C39.873 50.6723 40.7652 51.4633 41.8468 52.4215C44.1142 54.4448 47.1668 57.168 50.541 60.1783C53.9295 63.1742 56.9944 65.8852 59.2711 67.8977C60.3506 68.8588 61.2413 69.6512 61.9095 70.2462C62.1895 70.5039 62.422 70.7185 62.6158 70.8973C62.7745 71.0494 62.8541 71.1341 62.8455 71.1434C62.8369 71.1535 62.7414 71.0882 62.5663 70.9547C62.3603 70.7903 62.112 70.5936 61.8141 70.3568C61.1652 69.8314 60.2372 69.0605 59.0974 68.098C56.8178 66.1737 53.6963 63.4814 50.2919 60.4582C46.8891 57.435 43.8472 54.6544 41.6674 52.6174C40.5778 51.5989 39.7014 50.7678 39.1036 50.1864C38.833 49.9187 38.6083 49.6954 38.421 49.5095C38.2688 49.3516 38.1927 49.2641 38.2013 49.2547Z" fill="#263238" style="fill:#263238;fill:color(display-p3 0.1490 0.1961 0.2196);fill-opacity:1;"/>
<path d="M60.5915 49.9073C60.6116 49.8908 60.7846 50.0688 61.0796 50.404C61.3753 50.7385 61.7887 51.2352 62.2883 51.8582C63.2874 53.1035 64.6167 54.8663 65.9926 56.8774C67.3686 58.89 68.5292 60.7684 69.3273 62.1515C69.7271 62.8427 70.0393 63.4083 70.2439 63.8052C70.4492 64.2021 70.5525 64.4275 70.5303 64.4397C70.4829 64.467 69.9561 63.6322 69.1019 62.2886C68.2478 60.9435 67.0556 59.0946 65.6847 57.0884C64.3131 55.0838 63.0226 53.3023 62.0787 52.0189C61.1356 50.7349 60.5492 49.9418 60.5915 49.9073Z" fill="#263238" style="fill:#263238;fill:color(display-p3 0.1490 0.1961 0.2196);fill-opacity:1;"/>
<g opacity="0.2">
<path d="M31.9048 43.8041L63.1293 71.1442L70.8912 64.9334L52.7714 37.1685C52.7714 37.1685 51.3833 38.1898 47.7751 39.2205C44.2803 40.2196 33.9892 40.4866 31.9048 43.8041Z" fill="black" style="fill:black;fill-opacity:1;"/>
</g>
<g opacity="0.2">
<path d="M66.6616 20.6766L81.9104 58.8412L91.6525 55.7885L88.4061 22.6878C88.4061 22.6878 86.7279 23.0804 83.0057 22.6074C79.3996 22.1487 70.6466 18.7265 66.6616 20.6766Z" fill="black" style="fill:black;fill-opacity:1;"/>
</g>
<g opacity="0.3">
<path d="M107.317 12.6849L108.34 54.1295L117.474 54.5681L126.721 22.7593C126.545 22.7435 124.158 22.3308 121.344 20.5321C118.181 18.5116 111.741 12.3554 107.317 12.6849Z" fill="black" style="fill:black;fill-opacity:1;"/>
</g>
<g opacity="0.2">
<path d="M147.138 20.5149L131.985 58.7225L140.235 62.6666L161.087 36.9271C160.93 36.8446 158.954 35.1988 157.127 32.271C155.14 29.0863 151.754 21.7903 147.138 20.5149Z" fill="black" style="fill:black;fill-opacity:1;"/>
</g>
<g opacity="0.2">
<path d="M182.724 44.3574L154.5 73.7689L160.79 82.2456L188.367 63.8402C188.367 63.8402 187.208 62.0042 186.553 58.4707C185.889 54.8962 185.793 48.3833 182.724 44.3574Z" fill="black" style="fill:black;fill-opacity:1;"/>
</g>
<g opacity="0.2">
<path d="M205.002 77.5593L166.997 93.2014L170.15 102.911L203.216 99.3231C203.216 99.3231 203.009 98.3011 203.443 94.5737C203.865 90.9627 207.657 82.898 205.002 77.5593Z" fill="black" style="fill:black;fill-opacity:1;"/>
</g>
<g opacity="0.2">
<path d="M213.413 118.963L171.981 120.414L171.636 129.551L203.243 138.798C203.256 138.621 203.538 136.836 204.496 135.025C206.823 130.625 213.413 124.42 213.413 118.963Z" fill="black" style="fill:black;fill-opacity:1;"/>
</g>
<g opacity="0.2">
<path d="M205.781 158.141L167.632 143.272L163.773 151.562L189.727 172.147C189.808 171.99 191.324 170.585 194.232 168.727C197.397 166.708 204.903 163.445 205.781 158.141Z" fill="black" style="fill:black;fill-opacity:1;"/>
</g>
<g opacity="0.2">
<path d="M149.669 157.55L140.227 165.475C140.942 166.222 153.527 187.61 161.28 200.833C161.387 200.754 161.487 200.663 161.596 200.589C166.704 197.17 175.789 198.541 180.912 195.16L149.669 157.55Z" fill="black" style="fill:black;fill-opacity:1;"/>
<path d="M132.318 172.54L118.22 177.346L124.895 215.62C125.335 215.466 125.777 215.34 126.222 215.252C132.87 213.937 141.633 219.724 147.75 217.188C148.591 216.839 149.351 216.34 150.06 215.744L132.318 172.54Z" fill="black" style="fill:black;fill-opacity:1;"/>
<path d="M106.574 225.234L108.827 175.235L96.6384 172.147L87.5688 215.196C87.6808 215.214 87.7935 215.229 87.9048 215.251C94.2016 216.497 99.9552 224.835 106.574 225.234Z" fill="black" style="fill:black;fill-opacity:1;"/>
<path d="M75.9258 166.746C75.9258 166.746 59.8187 188.32 51.3979 199.939C51.792 200.135 52.171 200.35 52.5291 200.589C58.0609 204.293 60.1531 214.607 66.3768 217.187C66.6625 217.306 66.9553 217.401 67.2518 217.485L89.7527 174.894L75.9258 166.746Z" fill="black" style="fill:black;fill-opacity:1;"/>
<path d="M59.3963 149.375L25.0444 172.986C25.1758 173.156 25.3193 173.32 25.4378 173.497C29.1694 179.071 27.179 189.396 31.9047 194.122C32.3397 194.557 32.835 194.918 33.3568 195.249C45.4955 181.567 67.2865 157.009 68.0761 156.156L59.3963 149.375Z" fill="black" style="fill:black;fill-opacity:1;"/>
<path d="M51.5254 132.519L10.9112 139.078C11.5579 145.593 6.42305 153.822 8.83973 159.649C8.98759 160.006 9.16703 160.345 9.36297 160.676C23.576 153.599 53.2724 138.879 54.5077 138.798L51.5254 132.519Z" fill="black" style="fill:black;fill-opacity:1;"/>
<path d="M49.3076 109.896L10.9141 98.8157C10.8818 99.1494 10.8395 99.4803 10.7749 99.8047C9.49871 106.257 0.772949 112.137 0.772949 118.964C0.772949 119.422 0.815294 119.875 0.888505 120.325H47.753L49.3076 109.896Z" fill="black" style="fill:black;fill-opacity:1;"/>
<path d="M8.99463 77.9715C23.3411 85.6608 51.3983 101.214 51.3983 101.214L58.3031 88.1012L25.8698 63.6824C25.7313 63.9357 25.5963 64.1927 25.437 64.4296C21.7973 69.8666 11.786 71.9904 8.99463 77.9715Z" fill="black" style="fill:black;fill-opacity:1;"/>
</g>
<path d="M213.354 118.963C213.354 118.963 213.336 118.81 213.309 118.509C213.27 118.209 213.284 117.752 213.119 117.174C212.894 116.002 212.238 114.319 210.968 112.362C209.736 110.379 207.867 108.166 205.919 105.357C204.97 103.946 203.982 102.351 203.455 100.438C202.928 98.5214 203.029 96.3639 203.442 94.1883C203.838 91.9999 204.49 89.7461 205.061 87.3553C205.588 84.9774 206.157 82.3798 205.627 79.7363C205.344 78.4307 204.724 77.1854 203.843 76.1038C202.952 75.0257 201.833 74.1199 200.651 73.2708C198.269 71.5804 195.532 70.2268 192.91 68.4632C191.607 67.5775 190.312 66.5913 189.247 65.3324C188.171 64.077 187.474 62.5116 187.004 60.8923C186.081 57.6287 185.878 54.1354 185.177 50.6464C184.819 48.9101 184.336 47.1451 183.409 45.5804C182.502 44.0028 181.034 42.7826 179.321 42.0433C177.611 41.2847 175.732 40.8913 173.832 40.5762C171.927 40.2633 169.98 40.0415 168.022 39.6941C166.072 39.3439 164.073 38.8816 162.268 37.8825C160.452 36.8906 159.033 35.2957 157.844 33.5975C156.653 31.8856 155.628 30.0482 154.537 28.2344C153.445 26.4264 152.296 24.6083 150.806 23.063C149.318 21.532 147.334 20.4302 145.145 20.2867C142.966 20.1245 140.759 20.5415 138.582 21.0576C136.4 21.5815 134.216 22.2189 131.953 22.6438C129.709 23.0816 127.296 23.236 125.022 22.5139C122.781 21.7359 120.805 20.3771 118.897 18.9775C116.986 17.5714 115.12 16.0735 113.073 14.8303C111.036 13.6274 108.711 12.6246 106.293 12.896L105.845 12.9304C105.697 12.9555 105.55 12.9943 105.403 13.0252C105.11 13.0948 104.813 13.1486 104.523 13.2304C103.954 13.44 103.371 13.6101 102.828 13.8936C101.713 14.3889 100.675 15.06 99.6462 15.7404C97.602 17.1343 95.6748 18.7349 93.5811 20.1568C92.5454 20.8824 91.4365 21.5191 90.278 22.0667C89.1059 22.595 87.8326 22.9137 86.5399 23.0113C83.9417 23.1383 81.3872 22.5519 78.8836 21.9203C76.3736 21.2916 73.8629 20.5709 71.2733 20.3226C69.9813 20.2142 68.6728 20.2688 67.4196 20.5817C66.1571 20.8853 65.0374 21.6023 64.044 22.4364C62.0644 24.164 60.6806 26.4881 59.3047 28.7735C57.9323 31.0717 56.6289 33.4683 54.8058 35.5311C53.8863 36.5439 52.8226 37.4676 51.5766 38.0928C50.3313 38.7043 49.0034 39.1135 47.6598 39.4307C44.9618 40.0229 42.2056 40.2762 39.4896 40.7679C36.8037 41.256 34.0088 42.0196 32.017 43.9497C31.0588 44.9337 30.3877 46.1654 29.8953 47.4595C29.3922 48.7558 29.1036 50.1346 28.8488 51.5163C28.3457 54.2854 28.1138 57.1291 27.4427 59.9248C27.1233 61.3223 26.6432 62.7061 25.9154 63.9686C25.1861 65.2305 24.1755 66.325 23.0386 67.2237C20.7705 69.0468 18.1909 70.3962 15.7268 71.9049C14.498 72.665 13.2843 73.456 12.1675 74.3697C11.0678 75.2963 10.0687 76.36 9.384 77.6161C8.68993 78.865 8.37268 80.3062 8.38416 81.7525C8.37914 83.1995 8.5959 84.6486 8.88802 86.0834C9.49524 88.9523 10.4061 91.7781 10.892 94.7281C11.1454 96.1973 11.2365 97.7176 11.0399 99.2191C10.8468 100.726 10.2647 102.158 9.54047 103.475C8.04539 106.098 6.09308 108.398 4.36257 110.84C3.48835 112.055 2.68158 113.322 2.0478 114.67C1.41833 116.014 0.972605 117.462 0.961839 118.947C0.97117 120.431 1.40685 121.882 2.03417 123.227C2.66364 124.578 3.47255 125.844 4.34535 127.061C6.07442 129.506 8.02959 131.804 9.52683 134.427C10.2532 135.744 10.8389 137.173 11.0377 138.681C11.2394 140.182 11.1497 141.704 10.8963 143.174C10.414 146.125 9.50099 148.952 8.89377 151.822C8.60165 153.257 8.38201 154.706 8.38416 156.154C8.36837 157.601 8.68777 159.042 9.3761 160.294C10.0573 161.552 11.0557 162.618 12.1545 163.546C13.2721 164.459 14.4837 165.253 15.7132 166.013C18.1787 167.522 20.7583 168.872 23.0285 170.693C24.1648 171.593 25.1782 172.684 25.9096 173.945C26.6403 175.207 27.1198 176.592 27.4406 177.989C28.1139 180.784 28.345 183.629 28.8474 186.399C29.1015 187.781 29.3907 189.16 29.8932 190.457C30.3855 191.751 31.0531 192.985 32.0127 193.969C34.0023 195.903 36.798 196.667 39.4838 197.156C42.2005 197.649 44.9574 197.902 47.6562 198.493C49.0006 198.81 50.3277 199.219 51.5737 199.83C52.8197 200.456 53.8842 201.379 54.8043 202.392C56.6282 204.454 57.9316 206.852 59.3047 209.15C60.6813 211.435 62.0652 213.76 64.0447 215.488C65.0381 216.323 66.1578 217.04 67.4211 217.344C68.6743 217.657 69.9835 217.711 71.2754 217.603C73.8651 217.354 76.3765 216.633 78.8865 216.005C81.3908 215.373 83.9453 214.786 86.5443 214.914C87.8369 215.013 89.1102 215.332 90.2823 215.86C91.4408 216.409 92.5497 217.045 93.5854 217.771C95.6791 219.194 97.6063 220.794 99.6512 222.188C100.68 222.868 101.718 223.54 102.834 224.034C103.376 224.318 103.961 224.488 104.529 224.697C104.82 224.778 105.117 224.833 105.41 224.903C105.557 224.933 105.703 224.973 105.851 224.997L106.3 225.032C108.719 225.302 111.043 224.297 113.079 223.095C115.126 221.85 116.993 220.353 118.904 218.946C120.812 217.547 122.787 216.187 125.03 215.411C127.305 214.69 129.717 214.846 131.962 215.285C134.225 215.71 136.409 216.348 138.591 216.872C140.768 217.387 142.976 217.803 145.155 217.64C147.343 217.493 149.327 216.391 150.814 214.858C152.303 213.312 153.451 211.493 154.543 209.685C155.634 207.872 156.658 206.035 157.85 204.322C159.041 202.625 160.46 201.031 162.278 200.04C164.083 199.043 166.083 198.582 168.032 198.232C169.99 197.885 171.937 197.663 173.842 197.35C175.742 197.034 177.621 196.641 179.33 195.881C181.043 195.14 182.51 193.918 183.416 192.339C184.341 190.774 184.824 189.01 185.18 187.273C185.881 183.784 186.084 180.29 187.009 177.027C187.478 175.408 188.177 173.844 189.254 172.589C190.32 171.331 191.614 170.345 192.919 169.46C195.541 167.697 198.277 166.343 200.659 164.653C201.841 163.804 202.959 162.896 203.849 161.819C204.73 160.737 205.349 159.491 205.629 158.185C205.935 156.879 205.856 155.546 205.739 154.274C205.613 152.994 205.327 151.765 205.062 150.567C204.49 148.177 203.839 145.923 203.442 143.735C203.03 141.56 202.931 139.402 203.457 137.486C203.986 135.573 204.973 133.979 205.923 132.567C207.871 129.76 209.739 127.548 210.971 125.564C212.241 123.607 212.897 121.925 213.121 120.753C213.286 120.175 213.272 119.718 213.31 119.419C213.336 119.116 213.354 118.963 213.354 118.963C213.354 118.963 213.348 119.116 213.328 119.418C213.296 119.719 213.316 120.178 213.157 120.76C212.944 121.938 212.296 123.634 211.033 125.603C209.808 127.598 207.946 129.822 206.013 132.629C205.072 134.039 204.095 135.629 203.58 137.518C203.067 139.408 203.168 141.542 203.584 143.708C203.984 145.885 204.64 148.133 205.218 150.528C205.486 151.73 205.776 152.963 205.907 154.254C206.028 155.537 206.112 156.885 205.803 158.22C205.52 159.554 204.887 160.833 203.992 161.935C203.088 163.033 201.959 163.952 200.769 164.809C198.374 166.515 195.637 167.875 193.033 169.632C191.739 170.513 190.46 171.491 189.419 172.726C188.367 173.954 187.685 175.484 187.223 177.088C186.311 180.317 186.111 183.806 185.412 187.319C185.055 189.068 184.571 190.857 183.624 192.463C182.699 194.084 181.177 195.354 179.431 196.109C177.688 196.886 175.791 197.284 173.883 197.603C171.97 197.921 170.024 198.145 168.078 198.492C166.14 198.842 164.165 199.302 162.408 200.277C160.643 201.24 159.255 202.796 158.076 204.481C156.897 206.178 155.876 208.011 154.784 209.83C153.69 211.645 152.536 213.48 151.018 215.06C149.509 216.628 147.432 217.783 145.18 217.933C142.942 218.103 140.708 217.678 138.521 217.163C136.329 216.638 134.147 216.004 131.906 215.585C129.679 215.151 127.324 215.008 125.126 215.706C122.946 216.462 120.99 217.803 119.09 219.2C117.186 220.603 115.316 222.107 113.243 223.369C112.709 223.657 112.2 223.992 111.636 224.232C111.359 224.358 111.086 224.498 110.803 224.615L109.934 224.923C108.765 225.278 107.513 225.517 106.27 225.355L105.803 225.318C105.649 225.294 105.499 225.253 105.347 225.221C105.044 225.15 104.736 225.093 104.436 225.01C103.852 224.796 103.25 224.62 102.697 224.331C101.556 223.825 100.506 223.146 99.466 222.46C97.4046 221.056 95.4739 219.455 93.3981 218.047C92.3703 217.327 91.2786 216.702 90.1452 216.166C88.9997 215.651 87.7774 215.347 86.522 215.251C83.9955 215.127 81.4668 215.703 78.969 216.335C76.4655 216.963 73.9426 217.691 71.3041 217.946C69.9863 218.057 68.6369 218.004 67.3306 217.678C66.0114 217.36 64.84 216.612 63.8165 215.752C61.7759 213.969 60.3849 211.62 59.0018 209.329C57.6273 207.028 56.3253 204.645 54.5402 202.628C53.6387 201.638 52.6152 200.752 51.4115 200.147C50.2035 199.556 48.9022 199.154 47.5765 198.842C44.9101 198.257 42.1575 198.004 39.4178 197.509C38.0526 197.245 36.6745 196.963 35.3596 196.443C34.0476 195.935 32.7814 195.232 31.7543 194.224C30.748 193.192 30.0568 191.91 29.5515 190.584C29.0369 189.253 28.7448 187.856 28.4878 186.462C27.9811 183.671 27.7485 180.831 27.0832 178.074C26.7666 176.695 26.2958 175.345 25.5909 174.129C24.8861 172.915 23.9121 171.861 22.7946 170.977C20.5674 169.19 17.9971 167.842 15.5187 166.326C14.2812 165.561 13.056 164.76 11.9162 163.829C10.7944 162.882 9.76082 161.784 9.04809 160.468C8.32674 159.159 7.99514 157.642 8.01165 156.157C8.00878 154.667 8.23343 153.194 8.52843 151.745C9.14211 148.85 10.0522 146.025 10.5274 143.114C10.7772 141.664 10.8611 140.179 10.6673 138.731C10.4764 137.281 9.9137 135.902 9.20024 134.608C7.73028 132.031 5.78229 129.737 4.0403 127.275C3.16176 126.051 2.34065 124.767 1.69539 123.384C1.053 122.006 0.597221 120.501 0.587891 118.945C0.599375 117.388 1.06448 115.887 1.70902 114.512C2.35788 113.131 3.17756 111.847 4.05753 110.624C5.80096 108.166 7.74608 105.871 9.21389 103.293C9.92519 101.998 10.4843 100.619 10.6702 99.1689C10.8597 97.7211 10.7743 96.2368 10.5238 94.787C10.0458 91.8772 9.13637 89.0535 8.52412 86.1595C8.22984 84.7104 8.00734 83.2368 8.01308 81.7482C8.00016 80.2639 8.33033 78.7458 9.05742 77.4395C9.77374 76.1267 10.8087 75.03 11.9313 74.0847C13.0704 73.1531 14.297 72.3542 15.5337 71.5898C18.0107 70.0746 20.581 68.7274 22.806 66.9387C23.9236 66.0552 24.8954 64.9993 25.5981 63.7842C26.3001 62.5669 26.7717 61.2175 27.0867 59.8387C27.75 57.0825 27.9832 54.243 28.49 51.4524C28.7476 50.0592 29.0398 48.6625 29.5551 47.3325C30.0604 46.0061 30.7545 44.7263 31.76 43.6949C32.7886 42.6879 34.0554 41.9866 35.3675 41.4799C36.6824 40.961 38.0598 40.6782 39.425 40.4147C42.1639 39.9202 44.9151 39.6676 47.5816 39.0826C48.9073 38.7704 50.2078 38.3684 51.4151 37.7763C52.6188 37.1719 53.6409 36.2848 54.5424 35.295C56.3267 33.2795 57.6287 30.8959 59.0025 28.5947C60.3849 26.3044 61.7766 23.9559 63.8165 22.1737C64.84 21.3138 66.0114 20.5659 67.3306 20.2479C68.6362 19.9221 69.9856 19.8697 71.3034 19.9802C73.9412 20.235 76.4641 20.9635 78.9669 21.5909C81.4647 22.2232 83.9926 22.7988 86.5191 22.6761C87.7738 22.5799 88.9961 22.2763 90.1416 21.7617C91.2743 21.2262 92.366 20.6018 93.3945 19.8819C95.4703 18.4736 97.4003 16.873 99.4617 15.4691C100.501 14.7822 101.551 14.1039 102.692 13.5979C103.245 13.3094 103.846 13.1328 104.43 12.9189C104.729 12.8342 105.037 12.7782 105.34 12.7065C105.492 12.6742 105.644 12.6347 105.797 12.6089L106.263 12.5722C107.506 12.4093 108.758 12.6483 109.928 13.0022L110.797 13.3101C111.08 13.4257 111.352 13.5656 111.631 13.692C112.194 13.9324 112.704 14.2662 113.238 14.5547C115.311 15.8158 117.18 17.3195 119.084 18.7227C120.984 20.1202 122.94 21.4609 125.119 22.2182C127.316 22.9173 129.671 22.7759 131.898 22.3424C134.139 21.9232 136.321 21.2894 138.513 20.764C140.7 20.2487 142.933 19.8237 145.171 19.9917C147.423 20.1374 149.501 21.2937 151.012 22.8584C152.53 24.4375 153.685 26.2728 154.779 28.0873C155.871 29.9068 156.892 31.7399 158.07 33.4367C159.248 35.122 160.636 36.6788 162.399 37.6435C164.156 38.6189 166.131 39.0819 168.068 39.4314C170.014 39.7788 171.961 40.0028 173.873 40.3193C175.781 40.6387 177.678 41.0356 179.422 41.8115C181.168 42.5651 182.692 43.8341 183.619 45.4534C184.567 47.059 185.051 48.8477 185.409 50.5961C186.109 54.1088 186.308 57.5971 187.218 60.8277C187.682 62.4312 188.362 63.9622 189.412 65.191C190.454 66.4262 191.732 67.4053 193.026 68.2874C195.628 70.0452 198.366 71.4046 200.762 73.11C201.951 73.967 203.081 74.8843 203.985 75.9832C204.881 77.0849 205.515 78.3633 205.799 79.6968C206.109 81.0319 206.025 82.3805 205.905 83.6639C205.774 84.9551 205.485 86.1882 205.217 87.3898C204.639 89.7849 203.983 92.0336 203.583 94.2106C203.167 96.3761 203.064 98.51 203.577 100.401C204.092 102.291 205.068 103.881 206.01 105.292C207.943 108.099 209.805 110.324 211.031 112.319C212.293 114.288 212.942 115.984 213.155 117.163C213.314 117.744 213.294 118.204 213.326 118.504C213.349 118.81 213.354 118.963 213.354 118.963Z" fill="#263238" style="fill:#263238;fill:color(display-p3 0.1490 0.1961 0.2196);fill-opacity:1;"/>
<path d="M87.1278 217.598C87.2276 217.623 84.5783 228.365 81.2106 241.587C77.8422 254.813 75.0307 265.511 74.931 265.485C74.8312 265.459 77.4797 254.72 80.8481 241.494C84.2159 228.273 87.028 217.573 87.1278 217.598Z" fill="#263238" style="fill:#263238;fill:color(display-p3 0.1490 0.1961 0.2196);fill-opacity:1;"/>
<path d="M107.063 184.118C143.047 184.118 172.218 154.947 172.218 118.963C172.218 82.979 143.047 53.8081 107.063 53.8081C71.0791 53.8081 41.9082 82.979 41.9082 118.963C41.9082 154.947 71.0791 184.118 107.063 184.118Z" fill="white" style="fill:white;fill-opacity:1;"/>
<path d="M66.944 96.3869C66.0454 97.2855 61.1043 106.269 60.655 113.68C60.2057 121.092 61.2708 162.716 61.2708 162.716L61.4632 165.475C73.1935 179.192 115.825 199.603 154.227 165.406L156.379 139.805L150.043 85.6069L128.033 80.2165L122.872 71.8511L88.4731 79.9043L85.4054 87.1572L66.944 96.3869Z" fill="#455A64" style="fill:#455A64;fill:color(display-p3 0.2706 0.3529 0.3922);fill-opacity:1;"/>
<path d="M120.486 50.0577C122.001 44.4269 123.491 38.7559 124.015 32.9485C124.538 27.1412 124.053 21.1407 121.744 15.787C121.393 14.9752 118.486 9.55972 117.611 9.69107C116.986 9.78581 118.868 14.8805 118.579 15.4425C115.817 20.8019 115.316 27.1024 116.109 33.0784C116.902 39.0559 118.429 44.391 120.486 50.0577Z" fill="#263238" style="fill:#263238;fill:color(display-p3 0.1490 0.1961 0.2196);fill-opacity:1;"/>
<path d="M119.915 27.8117C119.637 13.191 110.897 1.1664 96.2903 1.84899L94.9438 1.99038C81.3961 3.41872 71.2111 15.0069 71.5456 28.6263C71.8564 41.2969 72.3631 55.2931 73.157 62.025C74.7999 75.9602 88.9857 76.6593 88.9857 76.6593C89.0172 76.6579 89.6359 85.8243 89.6359 85.8243L95.6307 92.3365L123.416 75.1269L119.915 27.8117Z" fill="#FFBF9D" style="fill:#FFBF9D;fill:color(display-p3 1.0000 0.7490 0.6157);fill-opacity:1;"/>
<path d="M88.9858 76.7669C88.9858 76.7669 97.8358 76.3556 106.588 69.4802C106.588 69.4802 103.657 82.1199 89.6002 82.3309L88.9858 76.7669Z" fill="#FF9A6C" style="fill:#FF9A6C;fill:color(display-p3 1.0000 0.6039 0.4235);fill-opacity:1;"/>
<path d="M79.5724 39.9926C79.6456 41.0485 80.6017 41.8574 81.7056 41.8007C82.8081 41.744 83.6442 40.8439 83.5703 39.7874C83.4964 38.7315 82.5418 37.9212 81.4393 37.9779C80.3347 38.0346 79.4985 38.9368 79.5724 39.9926Z" fill="#263238" style="fill:#263238;fill:color(display-p3 0.1490 0.1961 0.2196);fill-opacity:1;"/>
<path d="M75.1389 34.1036C75.413 34.3375 76.8048 33.0607 78.9501 32.8403C81.0891 32.5891 82.7794 33.5265 82.9847 33.2394C83.0866 33.1116 82.7851 32.6688 82.048 32.2417C81.3209 31.8161 80.1194 31.4543 78.7843 31.6007C77.45 31.7493 76.3777 32.3587 75.7848 32.9307C75.1783 33.5064 75.0046 34.0002 75.1389 34.1036Z" fill="#263238" style="fill:#263238;fill:color(display-p3 0.1490 0.1961 0.2196);fill-opacity:1;"/>
<path d="M98.5162 38.3835C98.5901 39.4393 99.5455 40.2482 100.65 40.1915C101.753 40.1348 102.589 39.2347 102.515 38.1782C102.441 37.1224 101.486 36.3127 100.383 36.3687C99.2784 36.4261 98.443 37.3276 98.5162 38.3835Z" fill="#263238" style="fill:#263238;fill:color(display-p3 0.1490 0.1961 0.2196);fill-opacity:1;"/>
<path d="M96.2347 32.7571C96.5096 32.9904 97.9035 31.7142 100.047 31.4939C102.186 31.2434 103.877 32.18 104.082 31.8929C104.183 31.7645 103.885 31.3223 103.145 30.896C102.418 30.4696 101.216 30.1079 99.8809 30.2543C98.5458 30.4029 97.4742 31.013 96.8814 31.5843C96.277 32.1599 96.1019 32.6538 96.2347 32.7571Z" fill="#263238" style="fill:#263238;fill:color(display-p3 0.1490 0.1961 0.2196);fill-opacity:1;"/>
<path d="M90.2795 50.0455C90.2767 49.9228 88.9194 49.8324 86.7302 49.7843C86.1769 49.7857 85.6471 49.7312 85.5151 49.3673C85.3443 48.9854 85.5115 48.371 85.7096 47.7057C86.085 46.3268 86.4776 44.8806 86.8889 43.3654C88.5124 37.192 89.6257 32.139 89.3766 32.0758C89.1268 32.0126 87.6095 36.9652 85.9866 43.1386C85.5998 44.6595 85.2294 46.1094 84.8777 47.4968C84.7363 48.1406 84.4542 48.8842 84.8203 49.6759C85.0105 50.0699 85.444 50.324 85.8051 50.3822C86.1675 50.4518 86.4762 50.426 86.7489 50.413C88.9352 50.3004 90.2846 50.1683 90.2795 50.0455Z" fill="#263238" style="fill:#263238;fill:color(display-p3 0.1490 0.1961 0.2196);fill-opacity:1;"/>
<path d="M96.7467 50.863C96.3957 50.8795 96.6362 53.2079 94.8181 55.0698C93.0043 56.9366 90.4958 56.9367 90.5116 57.2639C90.495 57.4132 91.1116 57.658 92.1624 57.5762C93.1931 57.503 94.6588 57.0142 95.7713 55.8758C96.8795 54.7339 97.2599 53.3278 97.2384 52.3645C97.2247 51.3819 96.9039 50.8328 96.7467 50.863Z" fill="#263238" style="fill:#263238;fill:color(display-p3 0.1490 0.1961 0.2196);fill-opacity:1;"/>
<path d="M95.4357 24.0428C95.7085 24.604 97.8208 24.1016 100.368 24.1397C102.917 24.1267 105.024 24.6493 105.302 24.0916C105.424 23.826 105.013 23.3142 104.133 22.8362C103.261 22.3582 101.907 21.9591 100.378 21.9505C98.8508 21.9448 97.4928 22.3302 96.6157 22.7996C95.7322 23.2683 95.3159 23.7758 95.4357 24.0428Z" fill="#263238" style="fill:#263238;fill:color(display-p3 0.1490 0.1961 0.2196);fill-opacity:1;"/>
<path d="M75.2732 26.882C75.7017 27.3291 77.1258 26.6681 78.8994 26.4571C80.665 26.1843 82.214 26.4384 82.5068 25.8922C82.6324 25.6295 82.3439 25.1665 81.6383 24.7746C80.9421 24.3835 79.8188 24.1222 78.6022 24.288C77.3856 24.4552 76.375 25.0079 75.8094 25.5728C75.2352 26.1384 75.0823 26.6616 75.2732 26.882Z" fill="#263238" style="fill:#263238;fill:color(display-p3 0.1490 0.1961 0.2196);fill-opacity:1;"/>
<path d="M119.865 38.2643C120.092 38.1365 129.154 34.4178 129.854 43.9898C130.555 53.5618 120.801 52.2907 120.764 52.0179C120.727 51.7445 119.865 38.2643 119.865 38.2643Z" fill="#FFBF9D" style="fill:#FFBF9D;fill:color(display-p3 1.0000 0.7490 0.6157);fill-opacity:1;"/>
<path d="M123.423 48.1779C123.462 48.1442 123.599 48.282 123.889 48.3904C124.174 48.4966 124.652 48.5483 125.138 48.3251C126.122 47.8801 126.856 46.2127 126.776 44.4836C126.736 43.6109 126.493 42.7948 126.134 42.1308C125.79 41.4518 125.301 40.9961 124.786 40.9422C124.271 40.8626 123.933 41.1934 123.836 41.4712C123.727 41.7483 123.802 41.9349 123.752 41.955C123.727 41.9808 123.535 41.81 123.582 41.4088C123.608 41.2157 123.704 40.9817 123.915 40.7815C124.131 40.5783 124.462 40.4578 124.82 40.4707C125.562 40.4678 126.276 41.098 126.67 41.8272C127.106 42.5572 127.399 43.4723 127.444 44.4535C127.523 46.3864 126.668 48.2641 125.313 48.7651C124.653 48.9904 124.077 48.8282 123.77 48.6237C123.457 48.4076 123.391 48.1973 123.423 48.1779Z" fill="#FF9A6C" style="fill:#FF9A6C;fill:color(display-p3 1.0000 0.6039 0.4235);fill-opacity:1;"/>
<path d="M76.7209 12.3605C75.116 11.6055 79.4448 6.28616 83.1427 4.31233C88.7318 1.32934 97.4196 -0.844749 102.825 0.319452C109.332 1.71979 114.847 4.55852 118.43 10.1685C122.013 15.7785 123.655 22.4787 123.896 29.1309C123.969 31.1607 123.895 33.2867 122.924 35.0696C121.722 37.2731 119.241 38.7725 119.542 41.6859C119.651 42.7511 119.416 43.8478 118.735 44.6739C117.103 46.6514 114.846 45.0371 113.747 43.3446C111.4 39.7286 110.878 35.2649 110.416 30.9791C110.087 27.933 109.763 24.8208 110.435 21.8313C110.801 20.2049 111.457 18.6481 111.732 17.0037C112.007 15.3593 111.839 13.524 110.745 12.2658C110.567 12.0612 110.279 11.8071 109.916 11.5287C107.051 9.32586 103.208 8.8586 99.8858 10.2805C94.6153 12.5357 85.5881 15.9787 83.0644 14.3028C79.434 11.8926 78.4959 10.2288 78.4959 10.2288L76.7209 12.3605Z" fill="#263238" style="fill:#263238;fill:color(display-p3 0.1490 0.1961 0.2196);fill-opacity:1;"/>
<path d="M66.9443 96.387C66.3895 97.155 58.5437 99.759 55.5679 104.717C52.592 109.676 49.6471 131.941 49.6471 131.941L47.7529 146.598C51.4853 152.503 56.4909 160.319 61.803 165.832L66.9443 96.387Z" fill="#455A64" style="fill:#455A64;fill:color(display-p3 0.2706 0.3529 0.3922);fill-opacity:1;"/>
<g opacity="0.3">
<path d="M125.89 117.884C126.22 120.871 126.558 123.891 127.585 126.716C128.613 129.54 130.415 132.193 133.045 133.647C134.147 134.256 135.389 134.658 136.311 135.515C137.301 136.436 137.8 137.772 138.696 138.785C139.739 139.962 141.241 140.618 142.724 141.143C147.112 142.697 151.435 143.439 156.088 143.272C156.229 141.736 156.239 136.093 156.38 134.557L125.89 117.884Z" fill="black" style="fill:black;fill-opacity:1;"/>
</g>
<path d="M150.044 85.6062C150.044 85.6062 159.937 88.5318 162.834 92.7457C165.731 96.9604 170.868 113.292 171.921 116.321C172.975 119.35 172.053 126.374 170.077 131.423C168.102 136.472 164.673 140.819 158.749 141.477C152.824 142.135 143.467 138.711 141.362 136.472C139.258 134.233 138.377 129.208 138.377 129.208C141.008 128.746 143.605 128.094 146.142 127.26" fill="#455A64" style="fill:#455A64;fill:color(display-p3 0.2706 0.3529 0.3922);fill-opacity:1;"/>
<path d="M146.143 127.26C146.144 127.264 146.103 127.282 146.019 127.314C145.921 127.349 145.8 127.393 145.646 127.448C145.315 127.561 144.82 127.726 144.168 127.922C142.863 128.313 140.924 128.843 138.395 129.304L138.474 129.191C138.696 130.309 139.016 131.538 139.484 132.82C139.72 133.46 139.991 134.119 140.341 134.761C140.691 135.399 141.1 136.048 141.666 136.565C142.233 137.081 142.934 137.5 143.667 137.885C144.397 138.281 145.184 138.622 145.995 138.954C147.623 139.61 149.384 140.175 151.25 140.618C153.117 141.05 155.101 141.37 157.153 141.377C157.667 141.4 158.18 141.331 158.699 141.305C159.21 141.22 159.734 141.173 160.241 141.029C161.268 140.797 162.275 140.413 163.213 139.876C165.107 138.825 166.711 137.194 167.928 135.274C169.162 133.358 170.064 131.184 170.73 128.912C171.246 127.167 171.626 125.403 171.873 123.649C172.124 121.896 172.246 120.145 172.131 118.444C172.065 117.587 171.906 116.783 171.617 115.987C171.35 115.183 171.086 114.387 170.824 113.599C170.298 112.025 169.783 110.485 169.281 108.982C168.262 105.982 167.257 103.143 166.25 100.514C165.225 97.8978 164.268 95.4366 163.069 93.3824C162.484 92.3495 161.683 91.5392 160.835 90.8831C160.004 90.2084 159.14 89.6708 158.32 89.1964C156.67 88.2583 155.169 87.5929 153.936 87.0762C152.699 86.5637 151.722 86.2062 151.057 85.9708C150.738 85.8588 150.488 85.7706 150.299 85.7045C150.129 85.6442 150.042 85.6119 150.044 85.6055C150.045 85.5997 150.137 85.6191 150.311 85.6679C150.502 85.7253 150.757 85.8021 151.08 85.899C151.754 86.1115 152.741 86.4474 153.989 86.9412C155.235 87.4386 156.75 88.0868 158.422 89.0141C159.254 89.4835 160.131 90.0175 160.983 90.6965C161.845 91.3497 162.689 92.1916 163.295 93.2446C164.53 95.3275 165.497 97.7808 166.539 100.401C167.562 103.032 168.579 105.871 169.606 108.87C170.113 110.372 170.632 111.913 171.163 113.485C171.425 114.272 171.691 115.067 171.959 115.869C172.252 116.665 172.431 117.549 172.495 118.414C172.616 120.158 172.492 121.928 172.241 123.7C171.992 125.474 171.61 127.254 171.089 129.018C170.415 131.315 169.5 133.521 168.24 135.474C166.997 137.432 165.346 139.111 163.39 140.192C162.421 140.744 161.379 141.137 160.323 141.374C159.8 141.52 159.262 141.568 158.736 141.653C158.204 141.679 157.677 141.747 157.153 141.723C155.06 141.71 153.058 141.377 151.175 140.934C149.292 140.48 147.522 139.902 145.882 139.232C145.064 138.892 144.272 138.543 143.532 138.137C142.79 137.74 142.081 137.313 141.482 136.763C140.885 136.209 140.471 135.536 140.117 134.881C139.765 134.221 139.497 133.552 139.263 132.901C138.8 131.598 138.492 130.363 138.281 129.226L138.263 129.129L138.36 129.112C140.886 128.681 142.827 128.183 144.138 127.824C144.777 127.642 145.273 127.5 145.63 127.399C145.786 127.354 145.91 127.319 146.011 127.29C146.098 127.265 146.142 127.255 146.143 127.26Z" fill="#263238" style="fill:#263238;fill:color(display-p3 0.1490 0.1961 0.2196);fill-opacity:1;"/>
<path d="M164.291 121.971C164.217 121.989 163.993 120.753 163.162 118.932C162.35 117.112 160.892 114.708 158.698 112.595C157.605 111.533 156.391 110.726 155.229 110.125C154.93 109.991 154.639 109.861 154.355 109.734C154.072 109.603 153.773 109.548 153.497 109.455C152.946 109.253 152.403 109.205 151.913 109.128C151.791 109.109 151.671 109.09 151.553 109.073C151.436 109.073 151.321 109.073 151.209 109.073C150.988 109.073 150.777 109.073 150.576 109.074C150.178 109.05 149.844 109.122 149.567 109.162C149.015 109.242 148.702 109.276 148.696 109.251C148.689 109.225 148.989 109.144 149.543 109.018C149.82 108.956 150.159 108.861 150.565 108.865C150.771 108.856 150.987 108.846 151.213 108.836C151.329 108.831 151.447 108.826 151.568 108.821C151.689 108.836 151.812 108.849 151.939 108.864C152.445 108.926 153.008 108.963 153.581 109.156C153.867 109.245 154.179 109.298 154.472 109.426C154.767 109.553 155.07 109.682 155.38 109.815C156.585 110.415 157.84 111.239 158.955 112.323C161.198 114.483 162.643 116.953 163.404 118.825C163.599 119.293 163.768 119.72 163.876 120.109C163.993 120.494 164.106 120.821 164.151 121.103C164.265 121.659 164.316 121.966 164.291 121.971Z" fill="#263238" style="fill:#263238;fill:color(display-p3 0.1490 0.1961 0.2196);fill-opacity:1;"/>
<path d="M169.688 113.096C169.607 113.128 169.338 111.825 168.197 110.084C167.079 108.372 164.942 106.223 161.893 105.312C158.856 104.388 155.908 104.673 153.85 104.871C152.87 104.988 152.046 105.087 151.39 105.165C150.809 105.236 150.485 105.265 150.481 105.24C150.476 105.215 150.792 105.137 151.367 105.021C151.942 104.907 152.777 104.754 153.817 104.609C155.877 104.345 158.867 104.004 162.003 104.955C163.558 105.428 164.924 106.224 165.992 107.135C167.073 108.036 167.86 109.046 168.419 109.942C168.978 110.844 169.297 111.646 169.474 112.208C169.655 112.768 169.707 113.092 169.688 113.096Z" fill="#263238" style="fill:#263238;fill:color(display-p3 0.1490 0.1961 0.2196);fill-opacity:1;"/>
<path d="M162.229 102.477C162.203 102.599 159.624 101.769 156.349 101.914C153.071 102.026 150.567 103.056 150.531 102.936C150.515 102.896 151.114 102.588 152.151 102.257C153.185 101.926 154.67 101.609 156.334 101.54C157.999 101.477 159.502 101.677 160.56 101.926C161.62 102.175 162.243 102.436 162.229 102.477Z" fill="#263238" style="fill:#263238;fill:color(display-p3 0.1490 0.1961 0.2196);fill-opacity:1;"/>
<path d="M146.224 88.0753C146.283 88.0846 146.14 89.0844 146.024 90.7051C145.909 92.3251 145.855 94.5738 146.078 97.04C146.281 99.4122 146.71 101.538 147.089 103.085L146.83 103.168C146.536 102.339 146.305 101.665 146.154 101.197C146.002 100.728 145.93 100.464 145.956 100.454C145.981 100.445 146.101 100.691 146.295 101.143C146.49 101.596 146.759 102.255 147.085 103.073L146.825 103.156C146.382 101.614 145.91 99.4711 145.705 97.0738C145.48 94.581 145.577 92.3079 145.761 90.6821C145.851 89.8689 145.958 89.2143 146.046 88.7657C146.136 88.3164 146.199 88.0709 146.224 88.0753Z" fill="#263238" style="fill:#263238;fill:color(display-p3 0.1490 0.1961 0.2196);fill-opacity:1;"/>
<path d="M132.238 69.6597C132.238 69.6597 127.104 69.6597 126.46 75.8302C125.965 80.5667 126.46 85.1654 126.46 87.2397C126.46 89.314 125.546 96.6904 125.546 96.6904C125.546 96.6904 122.043 99.7983 122.102 103.531C122.162 107.282 124.83 108.429 124.83 108.429C124.83 108.429 123.2 111.986 126.311 115.245C126.311 115.245 124.819 118.686 126.046 121.003C126.995 122.797 129.126 123.395 129.126 123.395C129.126 123.395 127.608 126.786 131.252 128.211C133.405 129.054 136.588 128.867 136.588 128.867L140.419 128.793L143.797 130.656C143.797 130.656 149.575 128.137 149.724 124.729C149.872 121.321 149.872 121.321 149.872 121.321C149.872 121.321 148.242 115.69 148.094 113.912C147.946 112.134 149.427 107.837 148.538 105.911C147.649 103.984 144.537 102.852 144.834 100.159C145.13 97.4648 144.537 95.9827 143.204 94.5012C141.87 93.0198 135.976 90.0562 135.976 90.0562C135.976 90.0562 134.461 85.759 134.461 82.7953C134.461 79.831 137.425 70.7923 132.238 69.6597Z" fill="#FFBF9D" style="fill:#FFBF9D;fill:color(display-p3 1.0000 0.7490 0.6157);fill-opacity:1;"/>
<path d="M135.698 91.1788C135.724 91.2233 135.178 91.5728 134.277 92.1011C133.375 92.6293 132.116 93.3363 130.714 94.0979C129.311 94.8594 128.032 95.5305 127.097 95.9992C126.163 96.4679 125.571 96.7356 125.547 96.6904C125.522 96.6452 126.068 96.2957 126.97 95.7674C127.872 95.2391 129.13 94.5321 130.532 93.7713C131.933 93.0105 133.212 92.3401 134.147 91.8707C135.081 91.402 135.672 91.1335 135.698 91.1788Z" fill="#FF9A6C" style="fill:#FF9A6C;fill:color(display-p3 1.0000 0.6039 0.4235);fill-opacity:1;"/>
<path d="M139.069 102.781C139.084 102.801 138.924 102.943 138.621 103.182C138.319 103.423 137.864 103.746 137.284 104.121C136.127 104.874 134.443 105.793 132.473 106.55C130.499 107.303 128.631 107.743 127.268 107.956C126.586 108.064 126.031 108.128 125.646 108.149C125.261 108.175 125.047 108.176 125.044 108.15C125.038 108.091 125.881 107.976 127.22 107.697C128.559 107.42 130.391 106.945 132.339 106.202C134.285 105.454 135.965 104.584 137.147 103.896C138.329 103.209 139.034 102.733 139.069 102.781Z" fill="#FF9A6C" style="fill:#FF9A6C;fill:color(display-p3 1.0000 0.6039 0.4235);fill-opacity:1;"/>
<path d="M143.476 99.0906C143.57 99.1229 143.377 99.7818 142.769 100.332C142.164 100.886 141.49 101.016 141.467 100.921C141.431 100.819 141.98 100.552 142.517 100.055C143.061 99.5679 143.378 99.0454 143.476 99.0906Z" fill="#FF9A6C" style="fill:#FF9A6C;fill:color(display-p3 1.0000 0.6039 0.4235);fill-opacity:1;"/>
<path d="M141.363 112.944C141.378 112.988 140.567 113.317 139.214 113.73C137.863 114.143 135.964 114.619 133.832 114.964C131.699 115.305 129.746 115.449 128.333 115.481C126.92 115.513 126.046 115.455 126.046 115.408C126.046 115.351 126.918 115.316 128.32 115.216C129.723 115.118 131.656 114.934 133.772 114.595C135.888 114.253 137.781 113.822 139.143 113.475C140.506 113.13 141.345 112.89 141.363 112.944Z" fill="#FF9A6C" style="fill:#FF9A6C;fill:color(display-p3 1.0000 0.6039 0.4235);fill-opacity:1;"/>
<path d="M146.052 112.09C146.001 112.059 146.226 111.667 146.446 110.991C146.668 110.319 146.854 109.339 146.727 108.271C146.599 107.202 146.187 106.293 145.813 105.693C145.44 105.087 145.129 104.759 145.171 104.717C145.2 104.684 145.583 104.948 146.032 105.544C146.48 106.132 146.961 107.084 147.098 108.227C147.234 109.369 146.99 110.408 146.694 111.084C146.398 111.768 146.088 112.115 146.052 112.09Z" fill="#FF9A6C" style="fill:#FF9A6C;fill:color(display-p3 1.0000 0.6039 0.4235);fill-opacity:1;"/>
<path d="M141.628 123.334C141.638 123.38 140.947 123.574 139.804 123.764C138.662 123.955 137.063 124.12 135.292 124.117C133.52 124.11 131.923 123.937 130.781 123.739C129.64 123.542 128.95 123.344 128.959 123.298C128.97 123.243 129.676 123.349 130.818 123.477C131.96 123.606 133.541 123.736 135.293 123.743C137.043 123.746 138.625 123.625 139.768 123.502C140.91 123.38 141.617 123.278 141.628 123.334Z" fill="#FF9A6C" style="fill:#FF9A6C;fill:color(display-p3 1.0000 0.6039 0.4235);fill-opacity:1;"/>
<path d="M132.516 82.8793C132.536 82.9187 132.283 83.1118 131.804 83.2834C131.327 83.4556 130.614 83.5762 129.837 83.485C129.06 83.391 128.395 83.1068 127.972 82.8276C127.546 82.5484 127.345 82.3015 127.375 82.2677C127.44 82.1744 128.416 82.9546 129.881 83.114C131.341 83.3035 132.475 82.7738 132.516 82.8793Z" fill="#FF9A6C" style="fill:#FF9A6C;fill:color(display-p3 1.0000 0.6039 0.4235);fill-opacity:1;"/>
<path d="M147.118 112.524C147.14 112.522 147.183 112.717 147.201 113.078C147.211 113.439 147.165 113.964 147.023 114.592C146.884 115.22 146.647 115.945 146.421 116.746C146.206 117.543 145.996 118.446 146.153 119.359C146.276 120.267 146.956 121.004 147.063 121.927C147.184 122.834 146.826 123.602 146.499 124.147C146.157 124.7 145.814 125.092 145.572 125.355C145.327 125.616 145.178 125.746 145.159 125.73C145.102 125.686 145.652 125.101 146.269 124.016C146.557 123.476 146.848 122.759 146.722 121.976C146.635 121.197 145.947 120.462 145.784 119.424C145.612 118.407 145.854 117.457 146.09 116.65C146.339 115.84 146.598 115.133 146.766 114.527C147.125 113.317 147.054 112.528 147.118 112.524Z" fill="#FF9A6C" style="fill:#FF9A6C;fill:color(display-p3 1.0000 0.6039 0.4235);fill-opacity:1;"/>
<path d="M149.048 117.033C149.073 117.027 149.16 117.266 149.289 117.707C149.417 118.148 149.59 118.791 149.752 119.599C149.909 120.407 150.068 121.381 150.095 122.48C150.117 123.57 150.009 124.822 149.446 125.996C148.868 127.153 148.036 128.06 147.24 128.806C146.432 129.548 145.64 130.131 144.96 130.596C144.279 131.058 143.709 131.402 143.308 131.626C142.907 131.852 142.677 131.961 142.664 131.939C142.632 131.888 143.493 131.348 144.807 130.38C145.461 129.893 146.227 129.294 147.004 128.555C147.771 127.812 148.566 126.923 149.11 125.833C149.636 124.738 149.755 123.547 149.751 122.484C149.745 121.414 149.615 120.45 149.493 119.645C149.228 118.036 148.989 117.047 149.048 117.033Z" fill="#263238" style="fill:#263238;fill:color(display-p3 0.1490 0.1961 0.2196);fill-opacity:1;"/>
<path d="M94.8896 93.1425C94.8731 93.1619 94.5781 92.9401 94.0584 92.5209C93.4907 92.0508 92.76 91.4465 91.8836 90.7208C91.4228 90.3318 90.9247 89.9119 90.3935 89.464C90.1272 89.2386 89.8567 89.0082 89.5473 88.8561C89.2408 88.7039 88.8942 88.6644 88.5862 88.8231C87.9668 89.1468 87.5534 89.942 87.0244 90.6017C86.5133 91.2907 85.9844 92.0027 85.4432 92.7327C84.5754 93.894 83.7407 95.0094 82.9712 96.0387L82.5068 96.6595L82.654 95.9001C83.1586 93.3033 83.8612 91.1364 84.4405 89.6384C84.7297 88.8884 84.9845 88.3027 85.1697 87.9065C85.3563 87.511 85.469 87.3021 85.4877 87.31C85.5071 87.3186 85.4303 87.5426 85.2788 87.9517C85.1281 88.3608 84.907 88.9566 84.6479 89.7131C84.1304 91.224 83.478 93.3873 83.0028 95.9655L82.6863 95.8269C83.4507 94.7941 84.2804 93.6751 85.1431 92.5095C85.6865 91.7817 86.2169 91.0704 86.7308 90.3828C86.9885 90.0397 87.2419 89.7023 87.4902 89.3721C87.7465 89.0427 88.0336 88.7068 88.4391 88.5123C88.8461 88.3041 89.3435 88.373 89.6937 88.5618C90.054 88.7463 90.3347 88.9996 90.5974 89.23C91.1178 89.6901 91.6058 90.1215 92.0573 90.5213C92.9021 91.2828 93.6069 91.9173 94.1546 92.4111C94.6434 92.8633 94.9061 93.1231 94.8896 93.1425Z" fill="#263238" style="fill:#263238;fill:color(display-p3 0.1490 0.1961 0.2196);fill-opacity:1;"/>
<path d="M125.197 87.0725C125.204 87.0826 125.108 87.1687 124.916 87.323C124.689 87.4996 124.409 87.7178 124.069 87.9841C123.28 88.5777 122.21 89.3823 120.906 90.3634C118.172 92.376 114.463 95.1057 110.346 98.136L110.186 98.2537L110.078 98.0851C109.996 97.9552 109.906 97.8152 109.817 97.6752C107.872 94.6047 106.054 91.7365 104.517 89.3091L104.711 89.3715C102.176 90.3792 100.184 91.4839 98.8279 92.305C98.1489 92.7162 97.6264 93.0565 97.269 93.2869C96.913 93.5194 96.7199 93.6393 96.7098 93.6256C96.7005 93.6127 96.8742 93.4656 97.213 93.2072C97.5539 92.9502 98.0614 92.5849 98.7296 92.1478C100.064 91.2764 102.047 90.1223 104.592 89.0751L104.714 89.0248L104.785 89.1375C106.336 91.5556 108.17 94.4145 110.132 97.4735C110.222 97.6142 110.311 97.7542 110.393 97.8841L110.125 97.8339C114.268 94.8387 118.001 92.1406 120.752 90.1517C122.084 89.21 123.177 88.437 123.983 87.8671C124.341 87.6238 124.633 87.4235 124.871 87.262C125.078 87.1285 125.19 87.0625 125.197 87.0725Z" fill="#263238" style="fill:#263238;fill:color(display-p3 0.1490 0.1961 0.2196);fill-opacity:1;"/>
<path d="M60.7798 115.617C60.7927 115.617 60.8056 115.791 60.8193 116.124C60.8293 116.493 60.8422 116.976 60.8587 117.576C60.8832 118.881 60.9169 120.695 60.9585 122.919C61.0439 127.429 61.2241 133.658 61.4581 140.538C61.6913 147.421 61.8306 153.657 61.8485 158.17C61.8557 160.426 61.8514 162.252 61.8299 163.514C61.817 164.115 61.8069 164.597 61.799 164.967C61.7875 165.299 61.776 165.474 61.7631 165.474C61.7502 165.474 61.7373 165.299 61.7236 164.967C61.7136 164.597 61.7007 164.115 61.6842 163.514C61.6598 162.209 61.626 160.396 61.5844 158.173C61.499 153.662 61.3188 147.433 61.0848 140.55C60.8516 133.67 60.713 127.436 60.6951 122.922C60.6879 120.665 60.6922 118.838 60.7138 117.576C60.7267 116.976 60.7367 116.493 60.7446 116.123C60.7554 115.791 60.7669 115.617 60.7798 115.617Z" fill="#263238" style="fill:#263238;fill:color(display-p3 0.1490 0.1961 0.2196);fill-opacity:1;"/>
<path d="M95.1254 180.451C95.119 180.452 95.1068 180.382 95.0888 180.245C95.0709 180.087 95.0479 179.886 95.0199 179.635C94.9646 179.072 94.8878 178.287 94.7902 177.288C94.5907 175.25 94.361 172.294 94.1328 168.638C93.8973 164.983 93.7064 160.625 93.5822 155.783C93.4775 150.941 93.4509 145.616 93.565 140.027C93.6935 134.437 93.9519 129.117 94.267 124.283C94.6015 119.45 94.9812 115.104 95.3752 111.463C95.7628 107.821 96.1202 104.878 96.408 102.85C96.5494 101.857 96.66 101.076 96.7397 100.515C96.7791 100.266 96.8107 100.067 96.8351 99.9096C96.8588 99.7733 96.8739 99.7044 96.8803 99.7051C96.8868 99.7058 96.8839 99.7769 96.8732 99.9147C96.8581 100.073 96.8387 100.274 96.8143 100.525C96.7511 101.087 96.6636 101.872 96.5523 102.868C96.309 104.901 95.9918 107.847 95.6379 111.489C95.2783 115.132 94.9259 119.476 94.6101 124.305C94.3143 129.135 94.0667 134.451 93.9383 140.035C93.8241 145.618 93.8406 150.938 93.9261 155.776C94.0316 160.613 94.1945 164.969 94.3955 168.623C94.59 172.277 94.7795 175.234 94.9345 177.276C95.0027 178.276 95.0558 179.064 95.0946 179.629C95.1075 179.881 95.1182 180.082 95.1269 180.242C95.1326 180.379 95.1319 180.451 95.1254 180.451Z" fill="#263238" style="fill:#263238;fill:color(display-p3 0.1490 0.1961 0.2196);fill-opacity:1;"/>
<path d="M73.7391 62.963C73.7391 62.963 73.4857 63.1403 72.9812 63.4712C72.4701 63.8035 71.7194 64.2916 70.7375 64.9296C69.752 65.5713 68.6122 66.48 67.2205 67.4884C66.535 68.0067 65.8467 68.6282 65.083 69.2577C64.704 69.5764 64.3136 69.9051 63.9102 70.2439C63.5133 70.5899 63.1321 70.9775 62.7252 71.3593C59.463 74.3961 55.7572 78.473 52.3435 83.8217C51.9251 84.495 51.4994 85.179 51.0666 85.8752C50.6166 86.5614 50.2678 87.3215 49.8536 88.0593C49.4624 88.8094 49.0268 89.5523 48.6543 90.3411C48.2918 91.1349 47.9243 91.941 47.5511 92.7578C47.3695 93.1683 47.1656 93.5732 46.9984 93.9966C46.8362 94.4223 46.6732 94.8515 46.5089 95.2828C46.1852 96.1477 45.8378 97.0177 45.5205 97.9113C44.9894 99.7322 44.319 101.566 43.9185 103.522C42.9237 107.386 42.3753 111.549 42.1535 115.892C41.903 120.238 42.1621 124.786 42.9086 129.412C44.4195 138.648 48.0635 148.266 54.2578 156.815C60.3716 165.39 69.0127 172.849 79.39 177.752C89.7444 182.684 101.862 184.816 113.962 183.562C126.081 182.307 137.432 177.536 146.525 170.563C148.817 168.839 150.922 166.921 152.944 164.964C153.431 164.456 153.916 163.949 154.401 163.443C154.891 162.943 155.364 162.429 155.812 161.895C156.268 161.369 156.723 160.843 157.178 160.319C157.607 159.775 158.035 159.231 158.461 158.69C161.873 154.351 164.565 149.618 166.691 144.802C168.815 139.975 170.22 134.993 171.086 130.079C171.531 127.621 171.775 125.17 171.938 122.753C172.015 121.544 172.014 120.341 172.055 119.15C172.032 117.96 171.967 116.778 171.926 115.607C171.903 115.021 171.88 114.438 171.857 113.858C171.822 113.278 171.727 112.706 171.666 112.134C171.528 110.99 171.391 109.857 171.256 108.734C171.078 107.618 170.82 106.526 170.61 105.436C170.386 104.35 170.198 103.264 169.861 102.228C169.56 101.182 169.262 100.147 168.967 99.1221C168.835 98.6046 168.654 98.1072 168.461 97.6156C168.276 97.1217 168.091 96.6308 167.907 96.142C167.525 95.1716 167.213 94.184 166.784 93.2581C166.352 92.3336 165.924 91.4199 165.502 90.5169C162.037 83.3243 157.587 77.5112 153.119 73.0245C148.635 68.5278 144.124 65.3747 140.323 63.0534C139.356 62.4979 138.442 61.9725 137.584 61.4794C137.162 61.2196 136.726 61.0193 136.308 60.8226C135.89 60.6238 135.488 60.4322 135.099 60.247C134.323 59.8774 133.608 59.5357 132.953 59.2235C132.304 58.8947 131.67 58.7081 131.128 58.4813C130.036 58.0578 129.202 57.7349 128.633 57.5145C128.072 57.2949 127.787 57.1729 127.787 57.1729C127.787 57.1729 128.08 57.2705 128.646 57.4786C129.218 57.6911 130.058 58.0033 131.156 58.4117C131.701 58.6328 132.339 58.8144 132.99 59.1381C133.649 59.446 134.368 59.7826 135.147 60.1472C135.537 60.3295 135.942 60.5197 136.362 60.7157C136.783 60.9102 137.22 61.1083 137.645 61.366C138.507 61.8555 139.426 62.3766 140.399 62.9285C144.219 65.2361 148.755 68.3799 153.267 72.8774C157.764 77.364 162.246 83.1865 165.74 90.4014C166.167 91.3072 166.597 92.2238 167.033 93.1511C167.464 94.0806 167.781 95.0711 168.166 96.0451C168.352 96.5353 168.538 97.0284 168.725 97.5237C168.919 98.0168 169.102 98.5171 169.237 99.036C169.534 100.065 169.836 101.104 170.14 102.154C170.48 103.195 170.671 104.284 170.897 105.376C171.111 106.47 171.371 107.567 171.551 108.688C171.689 109.815 171.829 110.954 171.97 112.102C172.032 112.677 172.128 113.252 172.164 113.834C172.188 114.418 172.212 115.003 172.237 115.591C172.28 116.767 172.346 117.955 172.37 119.151C172.331 120.348 172.334 121.556 172.258 122.771C172.098 125.199 171.855 127.664 171.411 130.134C170.547 135.075 169.138 140.084 167.009 144.939C164.875 149.783 162.172 154.543 158.744 158.909C158.316 159.454 157.886 160.001 157.455 160.548C156.998 161.075 156.541 161.604 156.082 162.133C155.632 162.671 155.157 163.188 154.664 163.691C154.177 164.2 153.689 164.71 153.2 165.221C151.169 167.19 149.053 169.119 146.748 170.855C137.608 177.871 126.191 182.672 114.002 183.934C101.834 185.196 89.646 183.049 79.235 178.084C68.801 173.149 60.1175 165.643 53.9793 157.017C47.7599 148.417 44.1087 138.745 42.6036 129.462C41.86 124.813 41.6066 120.244 41.8657 115.879C42.0954 111.518 42.6552 107.338 43.6615 103.46C44.0685 101.497 44.7453 99.6569 45.2829 97.8309C45.6031 96.9344 45.9541 96.0616 46.2814 95.1946C46.4472 94.7617 46.6122 94.3318 46.7759 93.9048C46.9446 93.4798 47.1506 93.0743 47.3336 92.6623C47.7104 91.8434 48.0815 91.0352 48.4468 90.2399C48.8222 89.4489 49.2615 88.7046 49.6562 87.9531C50.074 87.2138 50.4264 86.4523 50.8793 85.7654C51.3157 85.0685 51.7449 84.383 52.167 83.709C55.6086 78.3546 59.3409 74.2813 62.6254 71.2538C63.0352 70.8734 63.4192 70.4872 63.8183 70.1427C64.2238 69.8054 64.6179 69.4781 64.999 69.1608C65.7677 68.5349 66.4611 67.9162 67.1508 67.4016C68.5519 66.4003 69.7003 65.5003 70.6937 64.8679C71.6856 64.2427 72.4429 63.7647 72.9589 63.4389C73.4721 63.1187 73.7391 62.963 73.7391 62.963Z" fill="#263238" style="fill:#263238;fill:color(display-p3 0.1490 0.1961 0.2196);fill-opacity:1;"/>
</svg>
